# xmcd
#
# Track frame offsets:
#	150
#	8761
#	28717
#	47643
#	64348
#	87678
#	107434
#	130160
#	151369
#	168842
#	181880
#	202781
#	220937
#	248015
#	267266
#
# Disc length: 3815 seconds
#
# Revision: 0
# Processed by: cddbd v1.5.2PL0 Copyright (c) Steve Scherf et al.
# Submitted via: EasyCDDAExtractor 10.0.3.1
#
DISCID=c30ee50f
DTITLE=Dingo - Pyhä Klaani (1986)
DYEAR=2006
DGENRE=
TTITLE0=Hymni
TTITLE1=Kreivin sormus
TTITLE2=Kiinanmeri
TTITLE3=Suru tahtoo sua
TTITLE4=Pyhä klaani
TTITLE5=Koulukapina
TTITLE6=Perhosen lento
TTITLE7=Mirah
TTITLE8=Ruusuvettä
TTITLE9=Paluu planeetalle
TTITLE10=Juhannustanssit
TTITLE11=Hullu Henri
TTITLE12=The house without a name (Autiotalo)
TTITLE13=Tell me now (Kirjoitan)
TTITLE14=Tobacco road (Tupakkatie)
EXTD=
EXTT0=
EXTT1=
EXTT2=
EXTT3=
EXTT4=
EXTT5=
EXTT6=
EXTT7=
EXTT8=
EXTT9=
EXTT10=
EXTT11=
EXTT12=
EXTT13=
EXTT14=
PLAYORDER=
